<?xml version="1.0" encoding="UTF-8"?>
<svg version="1.1" xmlns="http://www.w3.org/2000/svg" width="50" height="72">
<path d="M0 0 C11.88 0 23.76 0 36 0 C36 1.65 36 3.3 36 5 C36.99 5 37.98 5 39 5 C39 6.32 39 7.64 39 9 C39.66 9 40.32 9 41 9 C41 12.63 41 16.26 41 20 C40.34 20 39.68 20 39 20 C39.66 20.33 40.32 20.66 41 21 C41 23.64 41 26.28 41 29 C40.01 29.495 40.01 29.495 39 30 C39 31.65 39 33.3 39 35 C37.68 35 36.36 35 35 35 C35.33 35.99 35.66 36.98 36 38 C34.68 38 33.36 38 32 38 C32 38.66 32 39.32 32 40 C33.65 40 35.3 40 37 40 C37 39.01 37 38.02 37 37 C38.32 37 39.64 37 41 37 C41 42.61 41 48.22 41 54 C37.7 54 34.4 54 31 54 C31 53.01 31 52.02 31 51 C30.34 51 29.68 51 29 51 C29 52.65 29 54.3 29 56 C29.99 55.67 30.98 55.34 32 55 C32 58.96 32 62.92 32 67 C31.01 66.67 30.02 66.34 29 66 C29 67.32 29 68.64 29 70 C28.34 70 27.68 70 27 70 C26.67 70.66 26.34 71.32 26 72 C22.28072376 72.20662646 20.27988952 71.63994476 17 70 C15.515 70.495 15.515 70.495 14 71 C14 71.33 14 71.66 14 72 C12.35 72 10.7 72 9 72 C8.505 71.01 8.505 71.01 8 70 C7.34 70 6.68 70 6 70 C6 68.68 6 67.36 6 66 C4.515 66.495 4.515 66.495 3 67 C3 63.7 3 60.4 3 57 C2.01 57 1.02 57 0 57 C-0.33 53.04 -0.66 49.08 -1 45 C-1.99 45 -2.98 45 -4 45 C-4.495 43.515 -4.495 43.515 -5 42 C-5.66 42 -6.32 42 -7 42 C-7 40.68 -7 39.36 -7 38 C-7.66 38 -8.32 38 -9 38 C-9 28.43 -9 18.86 -9 9 C-8.34 9 -7.68 9 -7 9 C-7 7.68 -7 6.36 -7 5 C-6.01 4.67 -5.02 4.34 -4 4 C-4 3.34 -4 2.68 -4 2 C-2.68 2 -1.36 2 0 2 C0 1.34 0 0.68 0 0 Z " fill="#5B2901" transform="translate(9,0)"/>
<path d="M0 0 C0.66 0 1.32 0 2 0 C2 3.63 2 7.26 2 11 C2.99 11 3.98 11 5 11 C5 11.99 5 12.98 5 14 C9.29 14 13.58 14 18 14 C18 14.66 18 15.32 18 16 C14.7 16 11.4 16 8 16 C8 18.31 8 20.62 8 23 C7.34 23 6.68 23 6 23 C6 23.99 6 24.98 6 26 C6.66 26 7.32 26 8 26 C8 28.31 8 30.62 8 33 C10.31 33 12.62 33 15 33 C15 30.36 15 27.72 15 25 C13.02 25 11.04 25 9 25 C9 24.34 9 23.68 9 23 C10.98 23 12.96 23 15 23 C15 22.01 15 21.02 15 20 C15.99 20 16.98 20 18 20 C18 19.01 18 18.02 18 17 C18.99 17 19.98 17 21 17 C21 17.66 21 18.32 21 19 C22.32 19.33 23.64 19.66 25 20 C25 20.66 25 21.32 25 22 C25.66 22 26.32 22 27 22 C27 21.34 27 20.68 27 20 C28.32 20 29.64 20 31 20 C31 19.01 31 18.02 31 17 C31.99 17 32.98 17 34 17 C34 17.66 34 18.32 34 19 C35.65 19 37.3 19 39 19 C39 18.01 39 17.02 39 16 C40.32 16 41.64 16 43 16 C43 21.61 43 27.22 43 33 C39.7 33 36.4 33 33 33 C33 32.01 33 31.02 33 30 C32.34 30 31.68 30 31 30 C31 31.65 31 33.3 31 35 C31.99 34.67 32.98 34.34 34 34 C34 37.96 34 41.92 34 46 C33.01 45.67 32.02 45.34 31 45 C31 46.32 31 47.64 31 49 C30.34 49 29.68 49 29 49 C28.505 49.99 28.505 49.99 28 51 C24.28072376 51.20662646 22.27988952 50.63994476 19 49 C17.515 49.495 17.515 49.495 16 50 C16 50.33 16 50.66 16 51 C14.35 51 12.7 51 11 51 C10.67 50.34 10.34 49.68 10 49 C9.34 49 8.68 49 8 49 C8 47.68 8 46.36 8 45 C6.515 45.495 6.515 45.495 5 46 C5 42.7 5 39.4 5 36 C4.01 36 3.02 36 2 36 C1.67 32.04 1.34 28.08 1 24 C0.01 24 -0.98 24 -2 24 C-2.33 23.01 -2.66 22.02 -3 21 C-3.66 21 -4.32 21 -5 21 C-5 19.68 -5 18.36 -5 17 C-5.66 17 -6.32 17 -7 17 C-7 14.03 -7 11.06 -7 8 C-4.69 8 -2.38 8 0 8 C0 5.36 0 2.72 0 0 Z " fill="#C40100" transform="translate(7,21)"/>
<path d="M0 0 C1.32 0 2.64 0 4 0 C4 1.98 4 3.96 4 6 C4.99 6 5.98 6 7 6 C7 6.99 7 7.98 7 9 C9.97 9 12.94 9 16 9 C16 8.34 16 7.68 16 7 C13.69 7 11.38 7 9 7 C9 6.01 9 5.02 9 4 C8.01 4 7.02 4 6 4 C6 2.68 6 1.36 6 0 C8.31 0 10.62 0 13 0 C13 0.99 13 1.98 13 3 C14.32 3 15.64 3 17 3 C17 4.32 17 5.64 17 7 C17.66 7 18.32 7 19 7 C19 7.99 19 8.98 19 10 C18.34 10 17.68 10 17 10 C17 10.99 17 11.98 17 13 C17.99 13 18.98 13 20 13 C20 14.32 20 15.64 20 17 C17.69 17 15.38 17 13 17 C13 18.65 13 20.3 13 22 C13.99 22 14.98 22 16 22 C16 21.01 16 20.02 16 19 C17.32 19 18.64 19 20 19 C20 20.32 20 21.64 20 23 C19.01 23 18.02 23 17 23 C17 23.99 17 24.98 17 26 C15.68 26 14.36 26 13 26 C13 26.99 13 27.98 13 29 C12.01 29 11.02 29 10 29 C10 29.99 10 30.98 10 32 C8.02 32 6.04 32 4 32 C4 32.66 4 33.32 4 34 C5.98 34 7.96 34 10 34 C10 36.64 10 39.28 10 42 C7.69 42 5.38 42 3 42 C3 39.69 3 37.38 3 35 C2.34 35 1.68 35 1 35 C1 34.01 1 33.02 1 32 C1.66 32 2.32 32 3 32 C3 29.69 3 27.38 3 25 C6.3 25 9.6 25 13 25 C13 24.34 13 23.68 13 23 C8.71 23 4.42 23 0 23 C0 22.01 0 21.02 0 20 C-0.99 20 -1.98 20 -3 20 C-3 16.37 -3 12.74 -3 9 C-3.66 9 -4.32 9 -5 9 C-5 11.64 -5 14.28 -5 17 C-7.31 17 -9.62 17 -12 17 C-12 13.37 -12 9.74 -12 6 C-9.03 6.33 -6.06 6.66 -3 7 C-3 5.68 -3 4.36 -3 3 C-2.01 3 -1.02 3 0 3 C0 2.01 0 1.02 0 0 Z " fill="#DB7B51" transform="translate(12,12)"/>
<path d="M0 0 C3.63 0 7.26 0 11 0 C11 1.65 11 3.3 11 5 C11.99 5 12.98 5 14 5 C14 6.32 14 7.64 14 9 C14.66 9 15.32 9 16 9 C16 12.63 16 16.26 16 20 C15.34 20 14.68 20 14 20 C14.66 20.33 15.32 20.66 16 21 C16 23.64 16 26.28 16 29 C15.34 29.33 14.68 29.66 14 30 C14 31.65 14 33.3 14 35 C12.68 35 11.36 35 10 35 C10.33 35.99 10.66 36.98 11 38 C8.69 38 6.38 38 4 38 C4 38.99 4 39.98 4 41 C2.68 41 1.36 41 0 41 C0 41.66 0 42.32 0 43 C-0.66 43 -1.32 43 -2 43 C-2.33 42.34 -2.66 41.68 -3 41 C-3.99 40.67 -4.98 40.34 -6 40 C-5.67 38.35 -5.34 36.7 -5 35 C-2.525 34.505 -2.525 34.505 0 34 C0 33.01 0 32.02 0 31 C0.99 31 1.98 31 3 31 C3 30.34 3 29.68 3 29 C2.01 29 1.02 29 0 29 C0 26.36 0 23.72 0 21 C1.32 21 2.64 21 4 21 C4 23.31 4 25.62 4 28 C4.66 28 5.32 28 6 28 C6 21.73 6 15.46 6 9 C5.01 8.67 4.02 8.34 3 8 C3 6.35 3 4.7 3 3 C2.01 3 1.02 3 0 3 C0 2.01 0 1.02 0 0 Z " fill="#482000" transform="translate(34,0)"/>
<path d="M0 0 C1.32 0 2.64 0 4 0 C4 5.61 4 11.22 4 17 C0.7 17 -2.6 17 -6 17 C-6 16.01 -6 15.02 -6 14 C-6.66 14 -7.32 14 -8 14 C-8 15.65 -8 17.3 -8 19 C-7.01 18.67 -6.02 18.34 -5 18 C-5 21.96 -5 25.92 -5 30 C-5.99 29.67 -6.98 29.34 -8 29 C-8 26.69 -8 24.38 -8 22 C-9.32 22 -10.64 22 -12 22 C-12 22.99 -12 23.98 -12 25 C-12.66 25 -13.32 25 -14 25 C-14.33 23.02 -14.66 21.04 -15 19 C-14.01 19 -13.02 19 -12 19 C-12 16.03 -12 13.06 -12 10 C-12.99 10 -13.98 10 -15 10 C-15 9.01 -15 8.02 -15 7 C-15.99 7 -16.98 7 -18 7 C-18 6.01 -18 5.02 -18 4 C-18.99 4 -19.98 4 -21 4 C-21 3.01 -21 2.02 -21 1 C-20.01 1 -19.02 1 -18 1 C-18 1.66 -18 2.32 -18 3 C-16.68 3.33 -15.36 3.66 -14 4 C-14 4.66 -14 5.32 -14 6 C-13.34 6 -12.68 6 -12 6 C-12 5.34 -12 4.68 -12 4 C-10.68 4 -9.36 4 -8 4 C-8 3.01 -8 2.02 -8 1 C-7.01 1 -6.02 1 -5 1 C-5 1.66 -5 2.32 -5 3 C-3.35 3 -1.7 3 0 3 C0 2.01 0 1.02 0 0 Z " fill="#7F0600" transform="translate(46,37)"/>
<path d="M0 0 C6.27 0 12.54 0 19 0 C19 3.3 19 6.6 19 10 C14.05 10 9.1 10 4 10 C3.67 11.65 3.34 13.3 3 15 C2.01 15 1.02 15 0 15 C0 16.32 0 17.64 0 19 C-6.75 19.125 -6.75 19.125 -9 18 C-9 15.03 -9 12.06 -9 9 C-8.34 9 -7.68 9 -7 9 C-7 7.68 -7 6.36 -7 5 C-6.01 4.67 -5.02 4.34 -4 4 C-4 3.34 -4 2.68 -4 2 C-2.68 2 -1.36 2 0 2 C0 1.34 0 0.68 0 0 Z " fill="#793A00" transform="translate(9,0)"/>
<path d="M0 0 C0.66 0 1.32 0 2 0 C2 3.63 2 7.26 2 11 C2.99 11 3.98 11 5 11 C5 11.99 5 12.98 5 14 C9.29 14 13.58 14 18 14 C18 14.66 18 15.32 18 16 C14.7 16 11.4 16 8 16 C8 18.31 8 20.62 8 23 C7.34 23 6.68 23 6 23 C6 23.99 6 24.98 6 26 C6.66 26 7.32 26 8 26 C8 27.98 8 29.96 8 32 C7.01 32 6.02 32 5 32 C5 33.32 5 34.64 5 36 C4.01 36 3.02 36 2 36 C1.67 32.04 1.34 28.08 1 24 C0.01 24 -0.98 24 -2 24 C-2.33 23.01 -2.66 22.02 -3 21 C-3.66 21 -4.32 21 -5 21 C-5 19.68 -5 18.36 -5 17 C-5.66 17 -6.32 17 -7 17 C-7 14.03 -7 11.06 -7 8 C-4.69 8 -2.38 8 0 8 C0 5.36 0 2.72 0 0 Z " fill="#220401" transform="translate(7,21)"/>
<path d="M0 0 C1.32 0 2.64 0 4 0 C4 1.98 4 3.96 4 6 C4.99 6 5.98 6 7 6 C7 6.99 7 7.98 7 9 C9.97 9 12.94 9 16 9 C16 8.34 16 7.68 16 7 C13.69 7 11.38 7 9 7 C9 6.01 9 5.02 9 4 C8.01 4 7.02 4 6 4 C6 2.68 6 1.36 6 0 C8.31 0 10.62 0 13 0 C13 0.99 13 1.98 13 3 C14.32 3 15.64 3 17 3 C17 4.32 17 5.64 17 7 C17.66 7 18.32 7 19 7 C19 7.99 19 8.98 19 10 C18.34 10 17.68 10 17 10 C17 10.99 17 11.98 17 13 C17.99 13 18.98 13 20 13 C20 14.32 20 15.64 20 17 C18.68 17 17.36 17 16 17 C16 14.69 16 12.38 16 10 C15.01 10 14.02 10 13 10 C13 11.98 13 13.96 13 16 C12.01 16 11.02 16 10 16 C10 14.02 10 12.04 10 10 C7.69 10 5.38 10 3 10 C3 11.98 3 13.96 3 16 C2.34 16 1.68 16 1 16 C1 13.69 1 11.38 1 9 C-0.98 9 -2.96 9 -5 9 C-5 11.64 -5 14.28 -5 17 C-7.31 17 -9.62 17 -12 17 C-12 13.37 -12 9.74 -12 6 C-9.03 6.33 -6.06 6.66 -3 7 C-3 5.68 -3 4.36 -3 3 C-2.01 3 -1.02 3 0 3 C0 2.01 0 1.02 0 0 Z " fill="#2B1742" transform="translate(12,12)"/>
<path d="M0 0 C0.99 0 1.98 0 3 0 C3 0.99 3 1.98 3 3 C8.28 3 13.56 3 19 3 C19 3.66 19 4.32 19 5 C18.01 5 17.02 5 16 5 C16 6.32 16 7.64 16 9 C16.99 9 17.98 9 19 9 C19 9.99 19 10.98 19 12 C20.32 12 21.64 12 23 12 C23 12.99 23 13.98 23 15 C19.28072376 15.20662646 17.27988952 14.63994476 14 13 C13.01 13.33 12.02 13.66 11 14 C11 14.33 11 14.66 11 15 C9.35 15 7.7 15 6 15 C5.67 14.34 5.34 13.68 5 13 C4.34 13 3.68 13 3 13 C3 11.68 3 10.36 3 9 C2.01 9.33 1.02 9.66 0 10 C0 6.7 0 3.4 0 0 Z " fill="#070101" transform="translate(12,57)"/>
<path d="M0 0 C1.32 0 2.64 0 4 0 C4 2.31 4 4.62 4 7 C4.63808594 7.06058594 5.27617188 7.12117188 5.93359375 7.18359375 C6.75988281 7.26738281 7.58617187 7.35117187 8.4375 7.4375 C9.67306641 7.55931641 9.67306641 7.55931641 10.93359375 7.68359375 C13 8 13 8 14 9 C14.04063832 10.66617115 14.042721 12.33388095 14 14 C12.68 14 11.36 14 10 14 C10.33 14.99 10.66 15.98 11 17 C8.69 17 6.38 17 4 17 C4 17.99 4 18.98 4 20 C2.68 20 1.36 20 0 20 C0 20.66 0 21.32 0 22 C-0.66 22 -1.32 22 -2 22 C-2.33 21.34 -2.66 20.68 -3 20 C-3.99 19.67 -4.98 19.34 -6 19 C-5.67 17.35 -5.34 15.7 -5 14 C-3.35 13.67 -1.7 13.34 0 13 C0 12.01 0 11.02 0 10 C0.99 10 1.98 10 3 10 C3 9.34 3 8.68 3 8 C2.01 8 1.02 8 0 8 C0 5.36 0 2.72 0 0 Z " fill="#BF1100" transform="translate(34,21)"/>
<path d="M0 0 C1.32 0 2.64 0 4 0 C4 4.29 4 8.58 4 13 C1.03 13 -1.94 13 -5 13 C-5 12.01 -5 11.02 -5 10 C-6.32 10 -7.64 10 -9 10 C-8.67 7.03 -8.34 4.06 -8 1 C-7.01 1 -6.02 1 -5 1 C-5 1.66 -5 2.32 -5 3 C-3.35 3 -1.7 3 0 3 C0 2.01 0 1.02 0 0 Z " fill="#00F100" transform="translate(46,37)"/>
<path d="M0 0 C1.32 0 2.64 0 4 0 C4 2.31 4 4.62 4 7 C4.66 7 5.32 7 6 7 C6 5.02 6 3.04 6 1 C8.31 1 10.62 1 13 1 C13 2.98 13 4.96 13 7 C13.99 7 14.98 7 16 7 C16 5.02 16 3.04 16 1 C16.99 1 17.98 1 19 1 C19 3.31 19 5.62 19 8 C18.01 8 17.02 8 16 8 C16 9.65 16 11.3 16 13 C14.02 13 12.04 13 10 13 C10 11.02 10 9.04 10 7 C9.36191406 7.08378906 8.72382813 7.16757812 8.06640625 7.25390625 C7.24011719 7.35574219 6.41382813 7.45757813 5.5625 7.5625 C4.73878906 7.66691406 3.91507813 7.77132813 3.06640625 7.87890625 C2.38449219 7.91886719 1.70257813 7.95882813 1 8 C0 7 0 7 -0.0625 3.4375 C-0.041875 2.303125 -0.02125 1.16875 0 0 Z " fill="#F38E66" transform="translate(9,21)"/>
<path d="M0 0 C2.97 0.33 5.94 0.66 9 1 C9 1.99 9 2.98 9 4 C13.29 4 17.58 4 22 4 C22 4.66 22 5.32 22 6 C18.7 6 15.4 6 12 6 C12 7.32 12 8.64 12 10 C11.01 10 10.02 10 9 10 C9 10.99 9 11.98 9 13 C8.01 13 7.02 13 6 13 C6 12.01 6 11.02 6 10 C5.01 10 4.02 10 3 10 C3 9.01 3 8.02 3 7 C2.01 7 1.02 7 0 7 C0 4.69 0 2.38 0 0 Z " fill="#BC0A00" transform="translate(3,31)"/>
<path d="M0 0 C1.32 0 2.64 0 4 0 C4 1.65 4 3.3 4 5 C4.99 5 5.98 5 7 5 C7 6.32 7 7.64 7 9 C7.66 9 8.32 9 9 9 C9 12.63 9 16.26 9 20 C6.03 20.33 3.06 20.66 0 21 C0 17.37 0 13.74 0 10 C0.66 10 1.32 10 2 10 C2.33 12.97 2.66 15.94 3 19 C3.99 19 4.98 19 6 19 C6 15.7 6 12.4 6 9 C5.01 9 4.02 9 3 9 C3 8.01 3 7.02 3 6 C2.01 6 1.02 6 0 6 C0 4.02 0 2.04 0 0 Z " fill="#0D0601" transform="translate(41,0)"/>
<path d="M0 0 C0.66 0 1.32 0 2 0 C2 1.98 2 3.96 2 6 C3.32 6 4.64 6 6 6 C6 6.99 6 7.98 6 9 C8.97 9 11.94 9 15 9 C15 10.32 15 11.64 15 13 C11.7 13 8.4 13 5 13 C5 12.01 5 11.02 5 10 C4.34 10 3.68 10 3 10 C3 11.65 3 13.3 3 15 C2.01 15 1.02 15 0 15 C0 11.7 0 8.4 0 5 C-0.99 5 -1.98 5 -3 5 C-3 4.34 -3 3.68 -3 3 C-2.01 3 -1.02 3 0 3 C0 2.01 0 1.02 0 0 Z " fill="#080501" transform="translate(35,41)"/>
<path d="M0 0 C2.31 0 4.62 0 7 0 C7 0.99 7 1.98 7 3 C8.32 3 9.64 3 11 3 C11 4.32 11 5.64 11 7 C11.66 7 12.32 7 13 7 C13 7.99 13 8.98 13 10 C12.34 10 11.68 10 11 10 C11 10.99 11 11.98 11 13 C11.99 13 12.98 13 14 13 C14 14.32 14 15.64 14 17 C12.68 17 11.36 17 10 17 C10 13.7 10 10.4 10 7 C7.69 7 5.38 7 3 7 C3 6.01 3 5.02 3 4 C2.01 4 1.02 4 0 4 C0 2.68 0 1.36 0 0 Z " fill="#AA6040" transform="translate(18,12)"/>
<path d="M0 0 C3.3 0 6.6 0 10 0 C10 2.64 10 5.28 10 8 C6.7 8 3.4 8 0 8 C0 5.36 0 2.72 0 0 Z " fill="#985034" transform="translate(40,21)"/>
<path d="M0 0 C0.33 0.99 0.66 1.98 1 3 C1.66 3 2.32 3 3 3 C3 2.01 3 1.02 3 0 C4.32 0 5.64 0 7 0 C7 3.63 7 7.26 7 11 C4.69 10.67 2.38 10.34 0 10 C0 9.01 0 8.02 0 7 C-0.99 7 -1.98 7 -3 7 C-3 5.68 -3 4.36 -3 3 C-2.01 3 -1.02 3 0 3 C0 2.01 0 1.02 0 0 Z " fill="#5F2E00" transform="translate(31,59)"/>
<path d="M0 0 C2.31 0 4.62 0 7 0 C7 0.99 7 1.98 7 3 C4.69 3 2.38 3 0 3 C0 3.99 0 4.98 0 6 C-0.99 6 -1.98 6 -3 6 C-3 6.99 -3 7.98 -3 9 C-3.99 9 -4.98 9 -6 9 C-6 12.3 -6 15.6 -6 19 C-6.99 18.67 -7.98 18.34 -9 18 C-9 15.03 -9 12.06 -9 9 C-8.34 9 -7.68 9 -7 9 C-7 7.68 -7 6.36 -7 5 C-6.01 4.67 -5.02 4.34 -4 4 C-4 3.34 -4 2.68 -4 2 C-2.68 2 -1.36 2 0 2 C0 1.34 0 0.68 0 0 Z " fill="#0E0401" transform="translate(9,0)"/>
<path d="M0 0 C2.4294516 3.6441774 2.16179575 5.71241272 2 10 C2.99 10 3.98 10 5 10 C5 10.66 5 11.32 5 12 C4.01 12 3.02 12 2 12 C2 12.99 2 13.98 2 15 C1.34 15 0.68 15 0 15 C0 14.01 0 13.02 0 12 C-1.32 12 -2.64 12 -4 12 C-4 12.99 -4 13.98 -4 15 C-4.99 15 -5.98 15 -7 15 C-7 13.35 -7 11.7 -7 10 C-4.69 10 -2.38 10 0 10 C0 8.68 0 7.36 0 6 C-0.99 6 -1.98 6 -3 6 C-3 5.01 -3 4.02 -3 3 C-2.01 3 -1.02 3 0 3 C0 2.01 0 1.02 0 0 Z " fill="#32150A" transform="translate(32,19)"/>
<path d="M0 0 C0.99 0 1.98 0 3 0 C3 0.66 3 1.32 3 2 C4.98 2 6.96 2 9 2 C9 4.64 9 7.28 9 10 C6.69 10 4.38 10 2 10 C2 7.69 2 5.38 2 3 C1.34 3 0.68 3 0 3 C0 2.01 0 1.02 0 0 Z " fill="#A26000" transform="translate(13,44)"/>
<path d="M0 0 C3.3 0 6.6 0 10 0 C10 1.32 10 2.64 10 4 C9.01 4 8.02 4 7 4 C7 4.99 7 5.98 7 7 C4.69 7.33 2.38 7.66 0 8 C0 5.36 0 2.72 0 0 Z " fill="#4B2200" transform="translate(15,62)"/>
<path d="M0 0 C3.96 0 7.92 0 12 0 C12 0.66 12 1.32 12 2 C9.69 2 7.38 2 5 2 C5 3.32 5 4.64 5 6 C5.99 6 6.98 6 8 6 C8 6.99 8 7.98 8 9 C10.31 9 12.62 9 15 9 C15 9.66 15 10.32 15 11 C12.03 11 9.06 11 6 11 C6 10.01 6 9.02 6 8 C5.01 8 4.02 8 3 8 C3 6.02 3 4.04 3 2 C2.01 2 1.02 2 0 2 C0 1.34 0 0.68 0 0 Z " fill="#3E1703" transform="translate(13,10)"/>
<path d="M0 0 C2.97 0.495 2.97 0.495 6 1 C6 1.99 6 2.98 6 4 C6.99 4 7.98 4 9 4 C9 4.66 9 5.32 9 6 C8.01 6 7.02 6 6 6 C6 7.32 6 8.64 6 10 C4.02 10 2.04 10 0 10 C0 6.7 0 3.4 0 0 Z M1 1 C1.33 1.66 1.66 2.32 2 3 C2.33 2.34 2.66 1.68 3 1 C2.34 1 1.68 1 1 1 Z " fill="#5B2801" transform="translate(3,9)"/>
<path d="M0 0 C1.32 0 2.64 0 4 0 C4 0.99 4 1.98 4 3 C4.99 3 5.98 3 7 3 C7 2.01 7 1.02 7 0 C8.98 0 10.96 0 13 0 C13 0.99 13 1.98 13 3 C12.01 3 11.02 3 10 3 C10 3.99 10 4.98 10 6 C6.7 6 3.4 6 0 6 C0 4.02 0 2.04 0 0 Z " fill="#9C5A00" transform="translate(12,3)"/>
<path d="M0 0 C3.3 0.33 6.6 0.66 10 1 C10 1.99 10 2.98 10 4 C8.02 4 6.04 4 4 4 C4 4.66 4 5.32 4 6 C8.95 6 13.9 6 19 6 C19 6.33 19 6.66 19 7 C13.72 7 8.44 7 3 7 C3 6.01 3 5.02 3 4 C2.01 4 1.02 4 0 4 C0 2.68 0 1.36 0 0 Z " fill="#740400" transform="translate(12,53)"/>
<path d="M0 0 C1.32 0 2.64 0 4 0 C4 1.32 4 2.64 4 4 C3.01 4 2.02 4 1 4 C1 4.99 1 5.98 1 7 C-1.31 7 -3.62 7 -6 7 C-6 6.01 -6 5.02 -6 4 C-6.66 4 -7.32 4 -8 4 C-8 3.01 -8 2.02 -8 1 C-7.01 1 -6.02 1 -5 1 C-5 1.66 -5 2.32 -5 3 C-3.35 3 -1.7 3 0 3 C0 2.01 0 1.02 0 0 Z " fill="#003C00" transform="translate(46,37)"/>
<path d="M0 0 C1.99954746 -0.04254356 4.00041636 -0.04080783 6 0 C7 1 7 1 7.0625 3.5625 C7.041875 4.366875 7.02125 5.17125 7 6 C5.68 6 4.36 6 3 6 C3.33 6.99 3.66 7.98 4 9 C2.68 9 1.36 9 0 9 C0 6.03 0 3.06 0 0 Z " fill="#0E0001" transform="translate(41,29)"/>
<path d="M0 0 C1.98 0 3.96 0 6 0 C6 0.99 6 1.98 6 3 C6.99 3.33 7.98 3.66 9 4 C8.360625 4.268125 7.72125 4.53625 7.0625 4.8125 C4.66868314 5.88667752 4.66868314 5.88667752 4 9 C2.68 9 1.36 9 0 9 C0 6.03 0 3.06 0 0 Z " fill="#6D3900" transform="translate(28,0)"/>
<path d="M0 0 C2.31 0 4.62 0 7 0 C7 2.31 7 4.62 7 7 C4.69 7 2.38 7 0 7 C0 4.69 0 2.38 0 0 Z " fill="#E5E5CF" transform="translate(15,37)"/>
<path d="M0 0 C0.99 0 1.98 0 3 0 C3 3.96 3 7.92 3 12 C2.01 12 1.02 12 0 12 C0 9.69 0 7.38 0 5 C-1.98 5 -3.96 5 -6 5 C-6 4.34 -6 3.68 -6 3 C-4.02 3 -2.04 3 0 3 C0 2.01 0 1.02 0 0 Z " fill="#561803" transform="translate(22,41)"/>
<path d="M0 0 C0.66 0 1.32 0 2 0 C2 3.3 2 6.6 2 10 C-0.31 10 -2.62 10 -5 10 C-5 12.31 -5 14.62 -5 17 C-5.66 17 -6.32 17 -7 17 C-7 14.03 -7 11.06 -7 8 C-4.69 8 -2.38 8 0 8 C0 5.36 0 2.72 0 0 Z " fill="#040000" transform="translate(7,21)"/>
<path d="M0 0 C0.99 0 1.98 0 3 0 C3.33 2.97 3.66 5.94 4 9 C2.68 9.33 1.36 9.66 0 10 C0 9.01 0 8.02 0 7 C-0.99 7 -1.98 7 -3 7 C-3 5.68 -3 4.36 -3 3 C-2.01 3 -1.02 3 0 3 C0 2.01 0 1.02 0 0 Z M-5 7 C-4.01 7.495 -4.01 7.495 -3 8 C-3.99 8.495 -3.99 8.495 -5 9 C-5 8.34 -5 7.68 -5 7 Z " fill="#763800" transform="translate(9,3)"/>
<path d="M0 0 C0.33 0.99 0.66 1.98 1 3 C3.97 3 6.94 3 10 3 C10 4.32 10 5.64 10 7 C6.7 7 3.4 7 0 7 C0 4.69 0 2.38 0 0 Z " fill="#002401" transform="translate(40,47)"/>
<path d="M0 0 C1.32 0 2.64 0 4 0 C4 1.32 4 2.64 4 4 C3.01 4 2.02 4 1 4 C1 4.99 1 5.98 1 7 C-0.32 7 -1.64 7 -3 7 C-3 7.99 -3 8.98 -3 10 C-3.99 10 -4.98 10 -6 10 C-6 8.68 -6 7.36 -6 6 C-5.01 6 -4.02 6 -3 6 C-3 5.01 -3 4.02 -3 3 C-2.01 3 -1.02 3 0 3 C0 2.01 0 1.02 0 0 Z " fill="#BBB503" transform="translate(28,31)"/>
<path d="M0 0 C0.66 0 1.32 0 2 0 C2 0.99 2 1.98 2 3 C6.29 3 10.58 3 15 3 C15 3.66 15 4.32 15 5 C10.71 5 6.42 5 2 5 C2 5.99 2 6.98 2 8 C1.34 8 0.68 8 0 8 C0 5.36 0 2.72 0 0 Z " fill="#030400" transform="translate(10,32)"/>
<path d="M0 0 C0.99 0 1.98 0 3 0 C3 0.99 3 1.98 3 3 C5.97 3 8.94 3 12 3 C11.01 3.33 10.02 3.66 9 4 C9 5.98 9 7.96 9 10 C8.01 10 7.02 10 6 10 C6 8.02 6 6.04 6 4 C3.69 4 1.38 4 -1 4 C-0.67 2.68 -0.34 1.36 0 0 Z " fill="#8B5044" transform="translate(16,18)"/>
<path d="M0 0 C0.33 0 0.66 0 1 0 C1 2.64 1 5.28 1 8 C1.66 8 2.32 8 3 8 C3 7.01 3 6.02 3 5 C3.99 5 4.98 5 6 5 C6 6.32 6 7.64 6 9 C5.01 9 4.02 9 3 9 C3 9.99 3 10.98 3 12 C2.01 12 1.02 12 0 12 C0 11.01 0 10.02 0 9 C-0.99 9 -1.98 9 -3 9 C-3 8.01 -3 7.02 -3 6 C-2.01 6 -1.02 6 0 6 C0 4.02 0 2.04 0 0 Z " fill="#B04103" transform="translate(9,32)"/>
<path d="M0 0 C1.32 0 2.64 0 4 0 C4 2.31 4 4.62 4 7 C4.66 7 5.32 7 6 7 C6 5.02 6 3.04 6 1 C6.33 1 6.66 1 7 1 C7 3.31 7 5.62 7 8 C5.00045254 8.04254356 2.99958364 8.04080783 1 8 C0 7 0 7 -0.0625 3.4375 C-0.041875 2.303125 -0.02125 1.16875 0 0 Z " fill="#CBB5CE" transform="translate(9,21)"/>
<path d="M0 0 C1.32 0 2.64 0 4 0 C4 2.31 4 4.62 4 7 C1.69 7 -0.62 7 -3 7 C-3 5.68 -3 4.36 -3 3 C-2.01 3 -1.02 3 0 3 C0 2.01 0 1.02 0 0 Z " fill="#DA7D58" transform="translate(12,12)"/>
<path d="M0 0 C2.31 0 4.62 0 7 0 C7 1.32 7 2.64 7 4 C7.99 4 8.98 4 10 4 C10 4.66 10 5.32 10 6 C8.02 6 6.04 6 4 6 C4 5.34 4 4.68 4 4 C2.68 4 1.36 4 0 4 C0 2.68 0 1.36 0 0 Z " fill="#D57953" transform="translate(18,12)"/>
<path d="M0 0 C1.32 0.33 2.64 0.66 4 1 C4.66 0.67 5.32 0.34 6 0 C6 1.65 6 3.3 6 5 C5.01 5 4.02 5 3 5 C3 6.32 3 7.64 3 9 C2.01 9 1.02 9 0 9 C0 6.03 0 3.06 0 0 Z " fill="#060101" transform="translate(9,48)"/>
<path d="M0 0 C2.31 0 4.62 0 7 0 C7 2.31 7 4.62 7 7 C5.68 7 4.36 7 3 7 C3 5.68 3 4.36 3 3 C2.01 3 1.02 3 0 3 C0 2.01 0 1.02 0 0 Z " fill="#C29D00" transform="translate(34,0)"/>
<path d="M0 0 C1.98 0 3.96 0 6 0 C6 1.98 6 3.96 6 6 C4.02 6 2.04 6 0 6 C0 4.02 0 2.04 0 0 Z " fill="#EA845B" transform="translate(0,22)"/>
<path d="M0 0 C0.33 0.99 0.66 1.98 1 3 C1.66 3 2.32 3 3 3 C3 2.01 3 1.02 3 0 C4.32 0 5.64 0 7 0 C7 1.32 7 2.64 7 4 C4.69 4 2.38 4 0 4 C0 4.99 0 5.98 0 7 C-0.99 7 -1.98 7 -3 7 C-3 5.68 -3 4.36 -3 3 C-2.01 3 -1.02 3 0 3 C0 2.01 0 1.02 0 0 Z " fill="#9A6600" transform="translate(31,59)"/>
<path d="M0 0 C1.98 0 3.96 0 6 0 C6 1.32 6 2.64 6 4 C1.05 4 -3.9 4 -9 4 C-9 3.67 -9 3.34 -9 3 C-6.03 3 -3.06 3 0 3 C0 2.01 0 1.02 0 0 Z " fill="#8A4A02" transform="translate(22,6)"/>
<path d="M0 0 C0.33 0 0.66 0 1 0 C1 2.64 1 5.28 1 8 C0.01 8.33 -0.98 8.66 -2 9 C-2 9.33 -2 9.66 -2 10 C-3.65 10 -5.3 10 -7 10 C-7 9.01 -7 8.02 -7 7 C-5.68 7 -4.36 7 -3 7 C-3 6.01 -3 5.02 -3 4 C-2.01 4 -1.02 4 0 4 C0 2.68 0 1.36 0 0 Z " fill="#120501" transform="translate(25,62)"/>
<path d="M0 0 C0 3.96 0 7.92 0 12 C-0.99 11.67 -1.98 11.34 -3 11 C-3 7.7 -3 4.4 -3 1 C-1 0 -1 0 0 0 Z " fill="#090401" transform="translate(41,55)"/>
<path d="M0 0 C1.32 0 2.64 0 4 0 C4 2.64 4 5.28 4 8 C2.68 8 1.36 8 0 8 C0 5.36 0 2.72 0 0 Z " fill="#C9714E" transform="translate(34,21)"/>
<path d="M0 0 C0.99 0 1.98 0 3 0 C3 3.3 3 6.6 3 10 C2.01 10 1.02 10 0 10 C0 6.7 0 3.4 0 0 Z " fill="#864A00" transform="translate(44,9)"/>
<path d="M0 0 C2.31 0 4.62 0 7 0 C7 0.99 7 1.98 7 3 C5.68 3 4.36 3 3 3 C3 3.99 3 4.98 3 6 C2.34 6 1.68 6 1 6 C0.67 4.02 0.34 2.04 0 0 Z " fill="#4B0900" transform="translate(31,56)"/>
<path d="M0 0 C2.97 0 5.94 0 9 0 C9 0.99 9 1.98 9 3 C6.03 3 3.06 3 0 3 C0 2.01 0 1.02 0 0 Z " fill="#00A900" transform="translate(41,47)"/>
<path d="M0 0 C1.98 0 3.96 0 6 0 C6 0.99 6 1.98 6 3 C5.01 3 4.02 3 3 3 C3 3.99 3 4.98 3 6 C2.01 6 1.02 6 0 6 C0 4.02 0 2.04 0 0 Z " fill="#F2CF00" transform="translate(16,47)"/>
<path d="M0 0 C0.99 0 1.98 0 3 0 C3 2.97 3 5.94 3 9 C2.01 9 1.02 9 0 9 C0 6.03 0 3.06 0 0 Z " fill="#E41D00" transform="translate(25,41)"/>
<path d="M0 0 C0.99 0 1.98 0 3 0 C3 1.98 3 3.96 3 6 C4.98 6 6.96 6 9 6 C9 6.33 9 6.66 9 7 C6.03 7 3.06 7 0 7 C0 4.69 0 2.38 0 0 Z " fill="#BB3324" transform="translate(16,28)"/>
<path d="M0 0 C1.98 0 3.96 0 6 0 C6 0.99 6 1.98 6 3 C5.01 3 4.02 3 3 3 C3 3.99 3 4.98 3 6 C2.01 6 1.02 6 0 6 C0 4.02 0 2.04 0 0 Z " fill="#F28C63" transform="translate(41,22)"/>
<path d="M0 0 C0.99 0 1.98 0 3 0 C3 2.64 3 5.28 3 8 C2.01 8 1.02 8 0 8 C0 5.36 0 2.72 0 0 Z " fill="#1E0D08" transform="translate(47,21)"/>
<path d="M0 0 C0.99 0 1.98 0 3 0 C3.33 2.31 3.66 4.62 4 7 C2.68 7 1.36 7 0 7 C0 4.69 0 2.38 0 0 Z " fill="#5F0201" transform="translate(41,31)"/>
<path d="M0 0 C2.31 0 4.62 0 7 0 C7 0.99 7 1.98 7 3 C4.69 3 2.38 3 0 3 C0 2.01 0 1.02 0 0 Z " fill="#E3E20B" transform="translate(15,41)"/>
<path d="M0 0 C0.99 0 1.98 0 3 0 C3 0.66 3 1.32 3 2 C3.99 2 4.98 2 6 2 C6 3.32 6 4.64 6 6 C5.01 6 4.02 6 3 6 C3 5.01 3 4.02 3 3 C2.01 3 1.02 3 0 3 C0 2.01 0 1.02 0 0 Z " fill="#491003" transform="translate(25,38)"/>
<path d="M0 0 C0.99 0 1.98 0 3 0 C3 0.99 3 1.98 3 3 C2.01 3 1.02 3 0 3 C0 3.99 0 4.98 0 6 C-0.99 6 -1.98 6 -3 6 C-3 4.68 -3 3.36 -3 2 C-2.01 2 -1.02 2 0 2 C0 1.34 0 0.68 0 0 Z " fill="#DEDD12" transform="translate(25,35)"/>
<path d="M0 0 C2.29013653 3.4352048 2.17842973 4.985331 2 9 C1.67 8.01 1.34 7.02 1 6 C-0.32 6 -1.64 6 -3 6 C-3 5.01 -3 4.02 -3 3 C-2.01 3 -1.02 3 0 3 C0 2.01 0 1.02 0 0 Z " fill="#461F06" transform="translate(32,19)"/>
<path d="M0 0 C0.99 0 1.98 0 3 0 C3 0.66 3 1.32 3 2 C3.66 2 4.32 2 5 2 C5 3.32 5 4.64 5 6 C4.01 6 3.02 6 2 6 C1.34 4.02 0.68 2.04 0 0 Z " fill="#EB2100" transform="translate(4,32)"/>
<path d="M0 0 C0.99 0 1.98 0 3 0 C3 1.98 3 3.96 3 6 C2.01 6 1.02 6 0 6 C0 4.02 0 2.04 0 0 Z " fill="#351701" transform="translate(22,47)"/>
<path d="M0 0 C0.99 0 1.98 0 3 0 C3 1.98 3 3.96 3 6 C2.01 6 1.02 6 0 6 C0 4.02 0 2.04 0 0 Z " fill="#04BB00" transform="translate(37,41)"/>
<path d="M0 0 C0.99 0 1.98 0 3 0 C3 1.98 3 3.96 3 6 C2.01 6 1.02 6 0 6 C0 4.02 0 2.04 0 0 Z " fill="#3B3DF5" transform="translate(22,22)"/>
<path d="M0 0 C0.99 0 1.98 0 3 0 C3 1.98 3 3.96 3 6 C2.01 6 1.02 6 0 6 C0 4.02 0 2.04 0 0 Z " fill="#F1F0F5" transform="translate(25,22)"/>
<path d="M0 0 C1.98 0 3.96 0 6 0 C6 0.99 6 1.98 6 3 C4.02 3 2.04 3 0 3 C0 2.01 0 1.02 0 0 Z " fill="#100A01" transform="translate(28,0)"/>
<path d="M0 0 C1.98 0 3.96 0 6 0 C5.67 1.65 5.34 3.3 5 5 C2.5 3.625 2.5 3.625 0 2 C0 1.34 0 0.68 0 0 Z " fill="#934F00" transform="translate(16,63)"/>
<path d="M0 0 C0.66 0 1.32 0 2 0 C2 0.99 2 1.98 2 3 C2.99 3 3.98 3 5 3 C5 3.66 5 4.32 5 5 C3.02 5 1.04 5 -1 5 C-0.67 3.35 -0.34 1.7 0 0 Z " fill="#F99167" transform="translate(23,13)"/>
<path d="M0 0 C2.31 0 4.62 0 7 0 C7 0.33 7 0.66 7 1 C5.02 1 3.04 1 1 1 C1 3.97 1 6.94 1 10 C0.67 10 0.34 10 0 10 C0 6.7 0 3.4 0 0 Z " fill="#000001" transform="translate(43,56)"/>
<path d="M0 0 C0.33 0 0.66 0 1 0 C1 3.63 1 7.26 1 11 C0.67 11 0.34 11 0 11 C0 7.37 0 3.74 0 0 Z " fill="#020001" transform="translate(6,46)"/>
<path d="M0 0 C0.33 0 0.66 0 1 0 C1 2.64 1 5.28 1 8 C0.67 8 0.34 8 0 8 C0 5.36 0 2.72 0 0 Z " fill="#020001" transform="translate(9,58)"/>
<path d="M0 0 C0.66 0 1.32 0 2 0 C2 1.32 2 2.64 2 4 C1.34 4 0.68 4 0 4 C0 2.68 0 1.36 0 0 Z " fill="#010001" transform="translate(46,0)"/>
<path d="M0 0 C0.99 0.99 1.98 1.98 3 3 C2.01 2.67 1.02 2.34 0 2 C0 1.34 0 0.68 0 0 Z " fill="#050101" transform="translate(12,68)"/>
<path d="M0 0 C0.33 0 0.66 0 1 0 C1 1.65 1 3.3 1 5 C0.67 5 0.34 5 0 5 C0 3.35 0 1.7 0 0 Z " fill="#020001" transform="translate(49,30)"/>
<path d="M0 0 C0.66 0 1.32 0 2 0 C1.67 0.66 1.34 1.32 1 2 C0.67 1.34 0.34 0.68 0 0 Z " fill="#170001" transform="translate(2,43)"/>
<path d="M0 0 C0.33 0.66 0.66 1.32 1 2 C0.34 1.67 -0.32 1.34 -1 1 C-0.67 0.67 -0.34 0.34 0 0 Z " fill="#0B0201" transform="translate(3,2)"/>
<path d="M0 0 C2 1 2 1 2 1 Z " fill="#070201" transform="translate(27,71)"/>
<path d="M0 0 C2 1 2 1 2 1 Z " fill="#070101" transform="translate(24,71)"/>
<path d="M0 0 C2 1 2 1 2 1 Z " fill="#040101" transform="translate(15,71)"/>
<path d="M0 0 C2 1 2 1 2 1 Z " fill="#000001" transform="translate(38,70)"/>
<path d="" fill="#0C0201" transform="translate(0,0)"/>
<path d="M0 0 C2 1 2 1 2 1 Z " fill="#000001" transform="translate(41,67)"/>
<path d="M0 0 C2 1 2 1 2 1 Z " fill="#000001" transform="translate(10,67)"/>
<path d="M0 0 C2 1 2 1 2 1 Z " fill="#000001" transform="translate(7,57)"/>
<path d="" fill="#080201" transform="translate(0,0)"/>
<path d="" fill="#000001" transform="translate(0,0)"/>
<path d="" fill="#000001" transform="translate(0,0)"/>
<path d="" fill="#000001" transform="translate(0,0)"/>
<path d="" fill="#120001" transform="translate(0,0)"/>
<path d="" fill="#0C0401" transform="translate(0,0)"/>
<path d="" fill="#050101" transform="translate(0,0)"/>
<path d="" fill="#000001" transform="translate(0,0)"/>
<path d="" fill="#000001" transform="translate(0,0)"/>
<path d="" fill="#000001" transform="translate(0,0)"/>
<path d="" fill="#070201" transform="translate(0,0)"/>
</svg>
